<svg width="30" height="27" viewBox="0 0 30 27" fill="none" xmlns="http://www.w3.org/2000/svg">
<path fill-rule="evenodd" clip-rule="evenodd" d="M30 13.5C30 14.0114 29.8025 14.5019 29.4509 14.8635C29.0993 15.2251 28.6224 15.4282 28.1252 15.4282H6.40389L14.4542 23.7042C14.6285 23.8834 14.7668 24.0963 14.8612 24.3305C14.9555 24.5647 15.004 24.8158 15.004 25.0693C15.004 25.3229 14.9555 25.5739 14.8612 25.8082C14.7668 26.0424 14.6285 26.2552 14.4542 26.4345C14.2799 26.6138 14.073 26.756 13.8452 26.853C13.6175 26.9501 13.3734 27 13.1269 27C12.8804 27 12.6363 26.9501 12.4085 26.853C12.1808 26.756 11.9738 26.6138 11.7995 26.4345L0.55079 14.8652C0.376197 14.6861 0.237677 14.4733 0.143163 14.239C0.0486494 14.0048 0 13.7536 0 13.5C0 13.2464 0.0486494 12.9952 0.143163 12.761C0.237677 12.5267 0.376197 12.3139 0.55079 12.1348L11.7995 0.565477C12.1516 0.203409 12.629 0 13.1269 0C13.6247 0 14.1022 0.203409 14.4542 0.565477C14.8063 0.927546 15.004 1.41862 15.004 1.93066C15.004 2.4427 14.8063 2.93377 14.4542 3.29584L6.40389 11.5718H28.1252C28.6224 11.5718 29.0993 11.7749 29.4509 12.1365C29.8025 12.4982 30 12.9886 30 13.5Z" fill="white"/>
</svg>